<?xml version="1.0" standalone="no"?>
<!DOCTYPE svg PUBLIC "-//W3C//DTD SVG 20010904//EN"
 "http://www.w3.org/TR/2001/REC-SVG-20010904/DTD/svg10.dtd">
<svg version="1.0" xmlns="http://www.w3.org/2000/svg"
 width="263.000000pt" height="115.000000pt" viewBox="0 0 263.000000 115.000000"
 preserveAspectRatio="xMidYMid meet">

<g transform="translate(0.000000,115.000000) scale(0.100000,-0.100000)"
fill="#000000" stroke="none">
<path d="M103 843 c4 -58 7 -207 7 -330 l0 -223 55 0 55 0 0 115 0 115 74 0
c83 0 83 0 116 -82 l24 -58 57 0 c32 0 60 4 63 8 2 4 -10 41 -29 82 l-34 74
39 37 c48 47 63 93 58 180 -6 102 -24 122 -119 130 -41 4 -101 12 -134 18 -33
6 -61 11 -63 11 -2 0 -1 4 2 9 8 12 -44 21 -117 21 l-60 0 6 -107z m325 -4
c31 -19 56 -90 49 -136 -4 -20 -18 -48 -32 -62 -23 -24 -34 -26 -125 -29
l-100 -4 0 119 c0 66 3 123 8 127 12 13 175 1 200 -15z"/>
<path d="M1545 933 c-93 -8 -173 -17 -176 -21 -4 -4 -4 -100 -1 -214 5 -236
-4 -217 101 -193 36 9 79 13 98 9 51 -10 254 15 276 34 9 9 25 40 33 71 39
132 -17 271 -126 314 -30 11 -61 11 -205 0z m170 -103 c40 -38 55 -73 55 -133
0 -40 -6 -63 -23 -88 -34 -51 -59 -59 -167 -57 l-95 3 -3 147 -3 147 28 4 c16
3 63 4 105 3 67 -1 80 -4 103 -26z"/>
<path d="M1970 740 l0 -209 50 2 c36 1 50 6 51 17 0 8 0 59 -1 113 -1 53 2 97
7 97 4 -1 42 -46 83 -101 135 -181 132 -179 201 -179 l60 0 -23 33 c-13 19
-90 124 -173 235 l-150 202 -52 0 -53 0 0 -210z"/>
<path d="M1249 906 c-4 -4 -72 -15 -96 -16 -9 0 -13 -31 -15 -102 l-3 -103
-170 0 -170 0 -5 90 -5 90 -55 3 -56 3 3 -238 c2 -130 5 -238 6 -239 1 -1 25
5 54 14 l52 14 3 82 3 81 170 0 170 0 3 -79 3 -78 37 6 c20 3 44 6 53 6 14 0
17 29 23 232 6 218 5 244 -5 234z"/>
<path d="M2433 699 c6 -205 7 -214 29 -230 18 -14 24 -15 36 -3 7 8 21 14 30
15 9 0 -5 7 -33 14 -48 12 -40 19 18 15 l27 -2 0 196 0 196 -39 0 c-22 0 -47
3 -57 7 -16 6 -17 -7 -11 -208z"/>
<path d="M1375 470 c-7 -12 2 -12 30 0 19 8 19 9 -2 9 -12 1 -25 -3 -28 -9z"/>
<path d="M1970 316 c0 -25 2 -26 55 -26 48 0 55 2 55 20 0 12 -7 20 -17 20
-10 0 -35 3 -55 6 -36 6 -38 5 -38 -20z"/>
<path d="M1383 313 c-30 -11 -9 -23 42 -23 42 0 55 3 55 15 0 11 -11 15 -42
14 -24 0 -49 -3 -55 -6z"/>
<path d="M2430 300 c0 -5 25 -10 55 -10 30 0 55 5 55 10 0 6 -25 10 -55 10
-30 0 -55 -4 -55 -10z"/>
<path d="M202 140 c0 -33 2 -38 7 -21 9 35 29 37 34 4 4 -26 4 -25 6 6 1 28
-2 33 -18 28 -13 -3 -21 1 -24 12 -3 9 -5 -4 -5 -29z"/>
<path d="M332 156 c3 -14 1 -31 -3 -38 -6 -9 -9 -6 -9 10 0 29 -27 40 -47 19
-14 -13 -14 -19 -3 -32 10 -12 27 -15 64 -13 47 3 51 5 51 28 0 19 -5 25 -21
24 -14 0 -20 4 -17 13 3 7 0 13 -7 13 -8 0 -11 -9 -8 -24z m-22 -26 c0 -11 -6
-20 -14 -20 -18 0 -29 16 -21 30 11 18 35 11 35 -10z m70 0 c0 -11 -7 -20 -15
-20 -8 0 -15 9 -15 20 0 11 7 20 15 20 8 0 15 -9 15 -20z"/>
<path d="M402 140 c0 -33 2 -38 7 -21 9 35 29 37 34 4 4 -26 4 -25 6 6 1 28
-2 33 -18 28 -13 -3 -21 1 -24 12 -3 9 -5 -4 -5 -29z"/>
<path d="M852 140 c0 -33 2 -38 7 -21 9 35 29 37 34 4 4 -26 4 -25 6 6 1 28
-2 33 -18 28 -13 -3 -21 1 -24 12 -3 9 -5 -4 -5 -29z"/>
<path d="M1982 130 c-1 -34 1 -41 9 -30 8 11 12 12 16 3 8 -22 18 -14 20 17 2
23 -2 30 -15 29 -10 0 -12 -3 -4 -6 17 -7 15 -23 -2 -23 -8 0 -17 12 -19 28
-3 17 -4 11 -5 -18z"/>
<path d="M2042 130 c0 -33 2 -38 7 -21 9 35 29 37 34 4 4 -26 4 -25 6 6 1 28
-2 33 -18 28 -13 -3 -21 1 -24 12 -3 9 -5 -4 -5 -29z"/>
<path d="M2107 162 c6 -4 13 -23 16 -42 4 -33 4 -33 5 8 2 34 -1 42 -15 42
-12 0 -14 -3 -6 -8z"/>
<path d="M142 130 c0 -19 2 -27 5 -17 2 9 2 25 0 35 -3 9 -5 1 -5 -18z"/>
<path d="M165 151 c-3 -5 0 -13 6 -16 5 -4 8 -13 5 -21 -3 -8 -1 -14 4 -14 5
0 8 13 7 30 -2 30 -11 38 -22 21z"/>
<path d="M710 145 c-16 -20 3 -45 35 -45 20 0 22 3 16 28 -9 31 -32 40 -51 17z
m40 -15 c0 -11 -6 -20 -14 -20 -18 0 -29 16 -21 30 11 18 35 11 35 -10z"/>
<path d="M781 127 c2 -30 2 -31 6 -4 2 15 8 27 12 27 14 0 33 -29 26 -40 -3
-5 -2 -10 4 -10 6 0 9 13 8 29 -2 23 -7 28 -29 29 -25 1 -28 -3 -27 -31z"/>
<path d="M1421 118 c2 -28 2 -29 6 -8 3 14 10 28 17 32 7 5 5 8 -6 8 -14 0
-18 -8 -17 -32z"/>
<path d="M1460 135 c-16 -20 3 -45 35 -45 20 0 22 3 16 28 -9 31 -32 40 -51
17z m40 -15 c0 -11 -6 -20 -14 -20 -18 0 -29 16 -21 30 11 18 35 11 35 -10z"/>
<path d="M1526 130 c3 -14 6 -33 7 -42 1 -13 4 -14 15 -6 8 7 9 14 3 17 -6 4
-15 18 -21 31 l-11 25 7 -25z"/>
<path d="M1562 130 c0 -14 2 -19 5 -12 2 6 2 18 0 25 -3 6 -5 1 -5 -13z"/>
<path d="M1590 135 c-16 -20 3 -45 35 -45 20 0 22 3 16 28 -9 31 -32 40 -51
17z m40 -15 c0 -21 -24 -28 -35 -10 -8 14 3 30 21 30 8 0 14 -9 14 -20z"/>
<path d="M1656 135 c-8 -22 3 -45 23 -46 12 0 12 -2 -4 -9 -19 -8 -19 -9 3 -9
14 -1 22 5 22 17 0 9 3 27 6 40 5 18 2 22 -19 22 -14 0 -27 -7 -31 -15z m34
-15 c0 -11 -4 -20 -9 -20 -14 0 -23 18 -16 30 10 17 25 11 25 -10z"/>
<path d="M1952 120 c0 -19 2 -27 5 -17 2 9 2 25 0 35 -3 9 -5 1 -5 -18z"/>
<path d="M2102 120 c0 -19 2 -27 5 -17 2 9 2 25 0 35 -3 9 -5 1 -5 -18z"/>
</g>
</svg>
